<svg width="22" height="23" viewBox="0 0 22 23" fill="none" xmlns="http://www.w3.org/2000/svg">
<path d="M15.6984 12.4954C17.5058 13.3171 19.0469 14.597 20.1565 16.198C21.266 17.799 21.9022 19.6607 21.9967 21.5834C22.0093 21.7595 21.9853 21.9363 21.926 22.1033C21.8667 22.2703 21.7733 22.4243 21.6514 22.5561C21.5295 22.6879 21.3814 22.795 21.216 22.871C21.0505 22.9469 20.871 22.9903 20.6879 22.9986C20.5048 23.0068 20.3218 22.9797 20.1497 22.9189C19.9776 22.8582 19.8198 22.7649 19.6857 22.6446C19.5515 22.5243 19.4437 22.3794 19.3685 22.2184C19.2932 22.0574 19.2522 21.8836 19.2477 21.7071C19.1476 19.6649 18.2348 17.7383 16.6988 16.3271C15.1627 14.9159 13.1214 14.1286 10.9986 14.1286C8.87573 14.1286 6.83442 14.9159 5.29837 16.3271C3.76233 17.7383 2.84954 19.6649 2.7495 21.7071C2.72478 22.0528 2.5605 22.3754 2.29184 22.6058C2.02319 22.8363 1.67151 22.9563 1.31213 22.9401C0.952745 22.9239 0.614223 22.7729 0.369053 22.5193C0.123884 22.2657 -0.00844007 21.9298 0.000417681 21.5834C0.0947998 19.6609 0.730681 17.7993 1.83989 16.1984C2.94911 14.5974 4.48983 13.3173 6.29688 12.4954C5.13891 11.5652 4.30658 10.3141 3.91309 8.91214C3.51961 7.51023 3.58408 6.02562 4.09773 4.66024C4.61139 3.29487 5.54929 2.11502 6.78387 1.28118C8.01844 0.447343 9.48975 0 10.9977 0C12.5056 0 13.9769 0.447343 15.2115 1.28118C16.446 2.11502 17.3839 3.29487 17.8976 4.66024C18.4113 6.02562 18.4757 7.51023 18.0822 8.91214C17.6888 10.3141 16.8564 11.5652 15.6984 12.4954ZM15.5865 7.0642C15.5865 5.89234 15.1031 4.76848 14.2427 3.93985C13.3823 3.11122 12.2154 2.6457 10.9986 2.6457C9.78179 2.6457 8.61483 3.11122 7.75443 3.93985C6.89403 4.76848 6.41066 5.89234 6.41066 7.0642C6.41066 8.23605 6.89403 9.35991 7.75443 10.1885C8.61483 11.0172 9.78179 11.4827 10.9986 11.4827C12.2154 11.4827 13.3823 11.0172 14.2427 10.1885C15.1031 9.35991 15.5865 8.23605 15.5865 7.0642Z" fill="black" fill-opacity="0.6"/>
</svg>
