<svg width="20" height="20" viewBox="0 0 20 20" fill="none" xmlns="http://www.w3.org/2000/svg">
<path d="M0.75 19.25L19.25 0.75" stroke="black" stroke-width="1.5" stroke-linecap="round"/>
<path d="M12.625 10C12.625 10.5192 12.471 11.0266 12.1826 11.4583C11.8941 11.8899 11.4842 12.2263 11.0045 12.4249C10.5249 12.6236 9.99718 12.6756 9.48802 12.5743C8.97886 12.473 8.51115 12.2231 8.14404 11.856L11.856 8.14404C12.331 8.61904 12.625 9.27504 12.625 10Z" fill="black" stroke="black" stroke-width="1.5" stroke-linecap="round"/>
<path d="M4.92395 15.076C6.28795 16.069 7.98095 16.81 9.99995 16.81C14.8129 16.81 17.7709 12.611 18.8199 10.808C18.963 10.5629 19.0383 10.2841 19.0382 10.0003C19.038 9.71652 18.9623 9.43787 18.8189 9.19295C18.2099 8.14695 16.9589 6.29495 15.0769 4.92295M12.2669 3.51395C11.5307 3.2978 10.7672 3.18868 9.99995 3.18995C5.19195 3.18995 2.23195 7.38695 1.18195 9.19095C1.03834 9.43619 0.962646 9.71526 0.962646 9.99945C0.962646 10.2836 1.03834 10.5627 1.18195 10.808C1.50795 11.368 2.01795 12.158 2.70995 12.981" stroke="black" stroke-width="1.5" stroke-linecap="round"/>
</svg>
