<svg width="8" height="5" viewBox="0 0 8 5" fill="none" xmlns="http://www.w3.org/2000/svg">
<path d="M0.164692 0.164633C0.270177 0.0591803 0.413225 -5.96046e-05 0.56238 -5.96046e-05C0.711535 -5.96046e-05 0.854583 0.0591803 0.960067 0.164633L3.74444 2.94901L6.52882 0.164633C6.63491 0.0621691 6.777 0.00547218 6.92448 0.00675392C7.07197 0.00803566 7.21305 0.067193 7.31734 0.171485C7.42163 0.275777 7.48079 0.416859 7.48207 0.564345C7.48335 0.711831 7.42666 0.853919 7.32419 0.960008L4.14213 4.14207C4.03665 4.24752 3.8936 4.30676 3.74444 4.30676C3.59529 4.30676 3.45224 4.24752 3.34676 4.14207L0.164692 0.960008C0.0592399 0.854523 0 0.711475 0 0.56232C0 0.413166 0.0592399 0.270117 0.164692 0.164633Z" fill="black"/>
</svg>
