<svg width="20" height="22" viewBox="0 0 20 22" fill="none" xmlns="http://www.w3.org/2000/svg">
<path d="M15.5 16.8V14H14.5V17.2L16.65 19.35L17.35 18.65L15.5 16.8ZM9 2L3.075 5.425L9 8.85L14.925 5.425L9 2ZM0 13.975V6.025C0 5.65833 0.0876667 5.325 0.263 5.025C0.438333 4.725 0.684 4.48333 1 4.3L8 0.275C8.16667 0.191667 8.32933 0.125 8.488 0.075C8.64667 0.025 8.81733 0 9 0C9.18267 0 9.35767 0.025 9.525 0.075C9.69233 0.125 9.85067 0.191667 10 0.275L17 4.3C17.3167 4.48333 17.5627 4.725 17.738 5.025C17.9133 5.325 18.0007 5.65833 18 6.025V10H16V7.1L8.975 11.15L2 7.1V13.95L8 17.425V19.725L1 15.7C0.683333 15.5167 0.437667 15.275 0.263 14.975C0.0883333 14.675 0.000666667 14.3417 0 13.975ZM15 22C13.6167 22 12.4377 21.5123 11.463 20.537C10.4883 19.5617 10.0007 18.3827 10 17C9.99933 15.6173 10.487 14.4383 11.463 13.463C12.439 12.4877 13.618 12 15 12C16.382 12 17.5613 12.4877 18.538 13.463C19.5147 14.4383 20.002 15.6173 20 17C19.998 18.3827 19.5103 19.562 18.537 20.538C17.5637 21.514 16.3847 22.0013 15 22Z" fill="black"/>
</svg>
